opsz144_wdth125.ufo
<glyph name="A" format="2">
	<unicode hex="0041"/>
	<advance width="1318"/>
	<outline>
		<contour>
			<point x="-229.6099853516" y="0" type="line"/>
			<point x="-212.1697998047" y="101.0009765625" type="line"/>
			<point x="-19.1676025391" y="119.0009765625" type="line"/>
			<point x="222.0581054688" y="562.0184326172" type="line"/>
			<point x="773.1065063477" y="1506" type="line"/>
			<point x="955.8538208008" y="1495" type="line"/>
			<point x="1024.0578613281" y="561" type="line"/>
			<point x="1066.6669311523" y="116.0009765625" type="line"/>
			<point x="1231.669128418" y="101.0009765625" type="line"/>
			<point x="1214.2289428711" y="0" type="line"/>
			<point x="659.1719360352" y="0" type="line"/>
			<point x="676.612121582" y="101.0009765625" type="line"/>
			<point x="888.6143188477" y="118.0009765625" type="line"/>
			<point x="857.6621704102" y="547" type="line"/>
			<point x="891" y="1166" type="line"/>
			<point x="886" y="1287" type="line"/>
			<point x="876" y="1287" type="line"/>
			<point x="799" y="1167" type="line"/>
			<point x="341.9587402344" y="538.7778320312" type="line"/>
			<point x="161.220703125" y="122.0009765625" type="line"/>
			<point x="393.2229003906" y="101.0009765625" type="line"/>
			<point x="376.7827148438" y="0" type="line"/>
		</contour>
		<contour>
			<point x="294.7709350586" y="578.4261474609" type="line"/>
			<point x="353.7393188477" y="699.888671875" type="line"/>
			<point x="601.6691894531" y="687.5551757812" type="line"/>
			<point x="571.0026855469" y="566.8151855469" type="line"/>
		</contour>
		<contour>
			<point x="601.6691894531" y="687.5551757812" type="line"/>
			<point x="941.8194580078" y="698.8331298828" type="line"/>
			<point x="937.0381469727" y="582.5372314453" type="line"/>
			<point x="571.0026855469" y="566.8151855469" type="line"/>
		</contour>
	</outline>
	<anchor name="bottom" x="523" y="0"/>
	<anchor name="ogonek" x="1098" y="0"/>
	<anchor name="top" x="954" y="1500"/>
	<anchor name="tonos" x="613" y="1500"/>
</glyph>
<glyph name="B" format="2">
	<unicode hex="0042"/>
	<advance width="1239"/>
	<outline>
		<contour>
			<point x="-68.0595092773" y="0" type="line"/>
			<point x="-48.6193237305" y="101.0009765625" type="line"/>
			<point x="128.3828735352" y="110.0009765625" type="line"/>
			<point x="280.9426879883" y="784" type="line"/>
			<point x="418.3025512695" y="1373.3588867188" type="line"/>
			<point x="230.3003540039" y="1384.3588867188" type="line"/>
			<point x="246.9404907227" y="1500" type="line"/>
			<point x="858.2378540039" y="1500" type="line" smooth="yes"/>
			<point x="1037.147277832" y="1500"/>
			<point x="1199.5601196289" y="1316"/>
			<point x="1177.7341918945" y="1175" type="qcurve" smooth="yes"/>
			<point x="1155.8905639648" y="1032"/>
			<point x="950.3418579102" y="856"/>
			<point x="853.0254516602" y="828" type="qcurve"/>
			<point x="851.0254516602" y="821" type="line"/>
			<point x="967.0448608398" y="787"/>
			<point x="1132.3025512695" y="579"/>
			<point x="1096.3231811523" y="414" type="qcurve" smooth="yes"/>
			<point x="1054.8265991211" y="224"/>
			<point x="782.2583618164" y="0"/>
			<point x="601.4868774414" y="0" type="qcurve" smooth="yes"/>
		</contour>
		<contour>
			<point x="307.1869506836" y="121.7218017578" type="line"/>
			<point x="334.8721313477" y="95.1477050781" type="line"/>
			<point x="612.8815307617" y="95.1477050781" type="line" smooth="yes"/>
			<point x="674.4727172852" y="95.1477050781"/>
			<point x="880.8329467773" y="214"/>
			<point x="926.3501586914" y="426" type="qcurve" smooth="yes"/>
			<point x="964.3501586914" y="606"/>
			<point x="823.5075073242" y="763.5743408203"/>
			<point x="743.6434936523" y="763.5743408203" type="qcurve" smooth="yes"/>
			<point x="443.6315307617" y="763.5743408203" type="line"/>
			<point x="441.0018920898" y="753.3150634766" type="line"/>
		</contour>
		<contour>
			<point x="465.6499633789" y="872.92578125" type="line"/>
			<point x="462.7055053711" y="864.888671875" type="line"/>
			<point x="700.3052368164" y="864.888671875" type="line" smooth="yes"/>
			<point x="800.409362793" y="864.888671875"/>
			<point x="986.9706420898" y="1016"/>
			<point x="1011.8673706055" y="1178" type="qcurve" smooth="yes"/>
			<point x="1035.7640991211" y="1334"/>
			<point x="872.2426147461" y="1388.5745849609"/>
			<point x="794.1720581055" y="1389.5745849609" type="qcurve" smooth="yes"/>
			<point x="609.7797241211" y="1389.5745849609" type="line"/>
			<point x="585.4649047852" y="1379.0004882812" type="line"/>
		</contour>
	</outline>
	<anchor name="bottom" x="630" y="0"/>
	<anchor name="top" x="630" y="1500"/>
</glyph>
<glyph name="C" format="2">
	<unicode hex="0043"/>
	<advance width="1316"/>
	<outline>
		<contour>
			<point x="78.9239875182" y="754" type="qcurve" smooth="yes"/>
			<point x="167.6120978698" y="1123"/>
			<point x="726.7527723888" y="1555.9826660156"/>
			<point x="1044.1364508971" y="1514.2864990234" type="qcurve" smooth="yes"/>
			<point x="1113.859095631" y="1505.1663818359"/>
			<point x="1251.0457411388" y="1449.9167480469"/>
			<point x="1304.7105360607" y="1406.0164794922" type="qcurve"/>
			<point x="1350.4722548107" y="1493.375" type="line"/>
			<point x="1391.6559821471" y="1493.2864990234" type="line"/>
			<point x="1298.8054572448" y="1082.0958251953" type="line"/>
			<point x="1197.6433478698" y="1082.0958251953" type="line"/>
			<point x="1169.5280524596" y="1090.3430175781" type="line"/>
			<point x="1161.5394049987" y="1233.9893798828"/>
			<point x="1088.683692108" y="1375.8402099609"/>
			<point x="996.4974128112" y="1388.8426513672" type="qcurve" smooth="yes"/>
			<point x="767.3560553893" y="1424.5906982422"/>
			<point x="352.9264289244" y="1181"/>
			<point x="263.9234992369" y="771" type="qcurve" smooth="yes"/>
			<point x="185.9234992369" y="419"/>
			<point x="359.4905043224" y="136.3778686523"/>
			<point x="566.6101332287" y="107.731628418" type="qcurve" smooth="yes"/>
			<point x="804.4007826427" y="73.2880249023"/>
			<point x="1110.0460578307" y="272.7874145508"/>
			<point x="1143.9744025573" y="413.2319946289" type="qcurve"/>
			<point x="1186.3631965026" y="400.8060913086" type="line"/>
			<point x="1216.122351776" y="331.4175415039" type="line"/>
			<point x="1164.0682746276" y="166.354675293"/>
			<point x="802.7394056896" y="-55.6914672852"/>
			<point x="550.1706916198" y="-28.286315918" type="qcurve" smooth="yes"/>
			<point x="256.3219252209" y="0.7249145508"/>
			<point x="-0.0937126771" y="424"/>
		</contour>
	</outline>
	<anchor name="bottom" x="596" y="0"/>
	<anchor name="top" x="906" y="1500"/>
</glyph>
<glyph name="E" format="2">
	<unicode hex="0045"/>
	<advance width="1151"/>
	<outline>
		<contour>
			<point x="-70.180480957" y="0" type="line"/>
			<point x="-50.7402954102" y="101.0009765625" type="line"/>
			<point x="139.2619018555" y="116.0009765625" type="line"/>
			<point x="290.8217163086" y="784" type="line"/>
			<point x="412.9415893555" y="1373.3588867188" type="line"/>
			<point x="229.9393920898" y="1387.3588867188" type="line"/>
			<point x="244.819519043" y="1500" type="line"/>
			<point x="1221.8654174805" y="1500" type="line"/>
			<point x="1141.98046875" y="1114.7542724609" type="line"/>
			<point x="1053.4985351562" y="1114.7542724609" type="line"/>
			<point x="1003.9946899414" y="1388.9449462891" type="line"/>
			<point x="608.4147338867" y="1388.9449462891" type="line"/>
			<point x="581.4147338867" y="1370.9449462891" type="line"/>
			<point x="456.803527832" y="784" type="line"/>
			<point x="319.5071411133" y="160.2032470703" type="line"/>
			<point x="379.5071411133" y="102.2032470703" type="line"/>
			<point x="777.2522583008" y="102.2032470703" type="line"/>
			<point x="997.4052124023" y="408.3939208984" type="line"/>
			<point x="1085.4071655273" y="408.3939208984" type="line"/>
			<point x="962.5505981445" y="0" type="line"/>
		</contour>
		<contour>
			<point x="359.2512817383" y="725.9075927734" type="line"/>
			<point x="375.5112915039" y="833.6665039062" type="line"/>
			<point x="790.8298950195" y="846.8331298828" type="line"/>
			<point x="902.7761230469" y="996.0238037109" type="line"/>
			<point x="985.9782714844" y="996.0238037109" type="line"/>
			<point x="890.6970214844" y="540.0688476562" type="line"/>
			<point x="812.6950683594" y="540.0688476562" type="line"/>
			<point x="770.3264770508" y="727.2595214844" type="line"/>
		</contour>
	</outline>
	<anchor name="bottom" x="518" y="0"/>
	<anchor name="ogonek" x="827" y="0"/>
	<anchor name="top" x="789" y="1500"/>
	<anchor name="tonos" x="81" y="1500"/>
</glyph>
<glyph name="F" format="2">
	<unicode hex="0046"/>
	<advance width="1042"/>
	<outline>
		<contour>
			<point x="-72.3014526367" y="0" type="line"/>
			<point x="-52.8612670898" y="101.0009765625" type="line"/>
			<point x="135.9009399414" y="116.0009765625" type="line"/>
			<point x="283.7007446289" y="767" type="line"/>
			<point x="407.9805297852" y="1372.3588867188" type="line"/>
			<point x="216.8184204102" y="1384.3588867188" type="line"/>
			<point x="232.6985473633" y="1500" type="line"/>
			<point x="1169.9197387695" y="1500" type="line"/>
			<point x="1103.2168579102" y="1181.8902587891" type="line"/>
			<point x="1022.4151000977" y="1181.8902587891" type="line"/>
			<point x="964.0995483398" y="1395.7967529297" type="line"/>
			<point x="624.5756225586" y="1395.7967529297" type="line"/>
			<point x="583.5756225586" y="1384.7967529297" type="line"/>
			<point x="448.5940551758" y="767" type="line"/>
			<point x="310.7942504883" y="121.0009765625" type="line"/>
			<point x="495.0364379883" y="101.0009765625" type="line"/>
			<point x="475.5962524414" y="0" type="line"/>
		</contour>
		<contour>
			<point x="359.8434448242" y="702.4816894531" type="line"/>
			<point x="378.1766967773" y="800.5738525391" type="line"/>
			<point x="751.4547729492" y="807.6849365234" type="line"/>
			<point x="846.7559204102" y="933.1906738281" type="line"/>
			<point x="924.7578735352" y="933.1906738281" type="line"/>
			<point x="839.9735107422" y="531.8093261719" type="line"/>
			<point x="761.9715576172" y="531.8093261719" type="line"/>
			<point x="728.3807983398" y="694.0002441406" type="line"/>
		</contour>
	</outline>
	<anchor name="bottom" x="578" y="0"/>
	<anchor name="top" x="622" y="1500"/>
</glyph>
<glyph name="H" format="2">
	<unicode hex="0048"/>
	<advance width="1617"/>
	<outline>
		<contour>
			<point x="-66.5748291016" y="0" type="line"/>
			<point x="-47.1346435547" y="101.0009765625" type="line"/>
			<point x="138.8675537109" y="116.0009765625" type="line"/>
			<point x="288.4273681641" y="794" type="line"/>
			<point x="408.1871337891" y="1364.9987792969" type="line"/>
			<point x="232.3050537109" y="1383.5988769531" type="line"/>
			<point x="247.4251708984" y="1500" type="line"/>
			<point x="798.4290771484" y="1500" type="line"/>
			<point x="775.7088623047" y="1383.5988769531" type="line"/>
			<point x="577.1866455078" y="1364.9987792969" type="line"/>
			<point x="446.4268798828" y="768" type="line"/>
			<point x="307.8670654297" y="116.0009765625" type="line"/>
			<point x="496.2691650391" y="101.0009765625" type="line"/>
			<point x="484.4290771484" y="0" type="line"/>
		</contour>
		<contour>
			<point x="346" y="738" type="line"/>
			<point x="367" y="855" type="line"/>
			<point x="832.734375" y="836.1108398438" type="line"/>
			<point x="1264.68359375" y="841.8515625" type="line"/>
			<point x="1240.2947998047" y="724.4816894531" type="line"/>
			<point x="810.6097412109" y="727.2224121094" type="line"/>
		</contour>
		<contour>
			<point x="820.4417724609" y="0" type="line"/>
			<point x="839.8819580078" y="101.0009765625" type="line"/>
			<point x="1026.8841552734" y="116.0009765625" type="line"/>
			<point x="1172.4439697266" y="764" type="line"/>
			<point x="1296.2037353516" y="1364.9987792969" type="line"/>
			<point x="1143.3216552734" y="1383.5988769531" type="line"/>
			<point x="1158.4417724609" y="1500" type="line"/>
			<point x="1686.4810791016" y="1500" type="line"/>
			<point x="1663.7608642578" y="1383.5988769531" type="line"/>
			<point x="1465.2386474609" y="1364.9987792969" type="line"/>
			<point x="1332.4788818359" y="748" type="line"/>
			<point x="1195.9190673828" y="116.0009765625" type="line"/>
			<point x="1384.3211669922" y="101.0009765625" type="line"/>
			<point x="1372.4810791016" y="0" type="line"/>
		</contour>
	</outline>
	<anchor name="bottom" x="607" y="0"/>
	<anchor name="center" x="820" y="1079"/>
	<anchor name="top" x="950" y="1500"/>
	<anchor name="tonos" x="81" y="1500"/>
	<anchor name="cy_descender" x="1399" y="100"/>
</glyph>
<glyph name="I" format="2">
	<unicode hex="0049"/>
	<advance width="715"/>
	<outline>
		<contour>
			<point x="-71.7869262695" y="0" type="line"/>
			<point x="-52.3467407227" y="100.5209960938" type="line"/>
			<point x="138.655456543" y="110.5209960938" type="line"/>
			<point x="294.2152709961" y="806" type="line"/>
			<point x="410.4950561523" y="1372.3588867188" type="line"/>
			<point x="232.3329467773" y="1383.3588867188" type="line"/>
			<point x="247.2130737305" y="1500" type="line"/>
			<point x="789.1284790039" y="1500" type="line"/>
			<point x="766.6482543945" y="1383.3588867188" type="line"/>
			<point x="583.6460571289" y="1372.3588867188" type="line"/>
			<point x="455.1262817383" y="790" type="line"/>
			<point x="313.5664672852" y="110.5209960938" type="line"/>
			<point x="489.5686645508" y="100.5209960938" type="line"/>
			<point x="480.1284790039" y="0" type="line"/>
		</contour>
	</outline>
	<anchor name="bottom" x="220" y="0"/>
	<anchor name="ogonek" x="356" y="0"/>
	<anchor name="top" x="503" y="1500"/>
	<anchor name="tonos" x="81" y="1500"/>
	<anchor name="yu_dash" x="365" y="795"/>
	<anchor name="liga" x="712" y="0"/>
</glyph>
<glyph name="J" format="2">
	<unicode hex="004A"/>
	<advance width="697"/>
	<outline>
		<contour>
			<point x="-14.0452880859" y="-291.2253417969" type="qcurve"/>
			<point x="14.5656738281" y="-188.0036621094" type="line"/>
			<point x="32.9227294922" y="-185.2629394531"/>
			<point x="26.0212402344" y="-179.5777587891"/>
			<point x="23.2639160156" y="-179.5777587891" type="qcurve" smooth="yes"/>
			<point x="64.4730224609" y="-179.5777587891"/>
			<point x="105.1115722656" y="-122.0572509766"/>
			<point x="130.1115722656" y="-7.0034179688" type="qcurve" smooth="yes"/>
			<point x="289.3660888672" y="754" type="line"/>
			<point x="400.6458740234" y="1373.3588867188" type="line"/>
			<point x="215.2438964844" y="1384.3588867188" type="line"/>
			<point x="231.1240234375" y="1500" type="line"/>
			<point x="787.0394287109" y="1500" type="line"/>
			<point x="764.1593017578" y="1384.3588867188" type="line"/>
			<point x="570.5568847656" y="1373.3588867188" type="line"/>
			<point x="446.2770996094" y="754" type="line"/>
			<point x="314.0225830078" y="76.9965820312" type="line" smooth="yes"/>
			<point x="280.0225830078" y="-95.1110839844"/>
			<point x="130.7017822266" y="-305.2253417969"/>
			<point x="61.4565429688" y="-305.2253417969" type="qcurve" smooth="yes"/>
			<point x="47.8432617188" y="-305.2253417969"/>
			<point x="3.5876464844" y="-295.1697998047"/>
		</contour>
	</outline>
	<anchor name="bottom" x="376" y="-208"/>
	<anchor name="top" x="533" y="1500"/>
	<anchor name="_liga" x="0" y="0"/>
</glyph>
<glyph name="K" format="2">
	<unicode hex="004B"/>
	<advance width="1309"/>
	<outline>
		<contour>
			<point x="-58.9747314453" y="0" type="line"/>
			<point x="-37.1346435547" y="101.0009765625" type="line"/>
			<point x="140.8675537109" y="111.0009765625" type="line"/>
			<point x="304.0274658203" y="806" type="line"/>
			<point x="425.1473388672" y="1373.3588867188" type="line"/>
			<point x="240.1451416016" y="1383.3588867188" type="line"/>
			<point x="255.0252685547" y="1500" type="line"/>
			<point x="808.0822753906" y="1500" type="line"/>
			<point x="783.2021484375" y="1383.3588867188" type="line"/>
			<point x="595.1999511719" y="1373.3588867188" type="line"/>
			<point x="461.080078125" y="776" type="line"/>
			<point x="305.9201660156" y="111.0009765625" type="line"/>
			<point x="495.9223632812" y="101.0009765625" type="line"/>
			<point x="484.0822753906" y="0" type="line"/>
		</contour>
		<contour>
			<point x="306.3098754883" y="507.8764648438" type="line"/>
			<point x="335.5399780273" y="669.6208496094" type="line"/>
			<point x="1057.7345581055" y="1380.3588867188" type="line"/>
			<point x="824.7323608398" y="1384.3588867188" type="line"/>
			<point x="838.612487793" y="1500" type="line"/>
			<point x="1472.2828979492" y="1500" type="line"/>
			<point x="1458.4027709961" y="1384.3588867188" type="line"/>
			<point x="1263.4005737305" y="1379.3588867188" type="line"/>
		</contour>
		<contour>
			<point x="530.4113769531" y="855.3479003906" type="line"/>
			<point x="682.6242675781" y="993.9095458984" type="line"/>
			<point x="1021.7905273438" y="112.0009765625" type="line"/>
			<point x="1176.7927246094" y="101.0009765625" type="line"/>
			<point x="1166.9526367188" y="0" type="line"/>
			<point x="619.8956298828" y="0" type="line"/>
			<point x="629.7357177734" y="101.0009765625" type="line"/>
			<point x="812.7379150391" y="112.0009765625" type="line"/>
		</contour>
	</outline>
	<anchor name="bottom" x="607" y="0"/>
	<anchor name="top" x="896" y="1500"/>
	<anchor name="kai_tail" x="1201" y="100"/>
</glyph>
<glyph name="L" format="2">
	<unicode hex="004C"/>
	<advance width="1182"/>
	<outline>
		<contour>
			<point x="-68.4837036133" y="0" type="line"/>
			<point x="-46.883605957" y="101.0009765625" type="line"/>
			<point x="130.1185913086" y="114.0009765625" type="line"/>
			<point x="289.7985229492" y="754" type="line"/>
			<point x="416.3983764648" y="1382.1188964844" type="line"/>
			<point x="238.3961791992" y="1384.1188964844" type="line"/>
			<point x="253.5162963867" y="1500" type="line"/>
			<point x="805.4317016602" y="1500" type="line"/>
			<point x="780.3115844727" y="1384.1188964844" type="line"/>
			<point x="589.309387207" y="1382.1188964844" type="line"/>
			<point x="451.7095336914" y="754" type="line"/>
			<point x="305.2930297852" y="113.2032470703" type="line"/>
			<point x="354.2930297852" y="102.2032470703" type="line"/>
			<point x="800.6793823242" y="102.2032470703" type="line"/>
			<point x="1040.9232788086" y="465.6660766602" type="line"/>
			<point x="1136.6454467773" y="465.6660766602" type="line"/>
			<point x="979.8276977539" y="0" type="line"/>
		</contour>
	</outline>
	<anchor name="bottom" x="535" y="0"/>
	<anchor name="centerright" x="755" y="750"/>
	<anchor name="top" x="878" y="1500"/>
	<anchor name="topright" x="804" y="1001"/>
	<anchor name="center" x="397" y="750"/>
	<anchor name="liga" x="1104" y="0"/>
</glyph>
<glyph name="M" format="2">
	<unicode hex="004D"/>
	<advance width="1824"/>
	<outline>
		<contour>
			<point x="-77.3014526367" y="0" type="line"/>
			<point x="-56.4613647461" y="101.0009765625" type="line"/>
			<point x="161.5408325195" y="126.0009765625" type="line"/>
			<point x="326.4013671875" y="747" type="line"/>
			<point x="456.8206176758" y="1359.3588867188" type="line"/>
			<point x="226.8184204102" y="1384.3588867188" type="line"/>
			<point x="242.6985473633" y="1500" type="line"/>
			<point x="772.5415649414" y="1500" type="line"/>
			<point x="806.3008422852" y="832.4883422852" type="line"/>
			<point x="815" y="327" type="line"/>
			<point x="831" y="213" type="line"/>
			<point x="841" y="213" type="line"/>
			<point x="900" y="327" type="line"/>
			<point x="1177.4491577148" y="941.9654541016" type="line"/>
			<point x="1418.5400390625" y="1500" type="line"/>
			<point x="1905.7185668945" y="1500" type="line"/>
			<point x="1882.7583618164" y="1383.3588867188" type="line"/>
			<point x="1689.7561645508" y="1362.3588867188" type="line"/>
			<point x="1554.7163696289" y="768" type="line"/>
			<point x="1410.5564575195" y="121.0009765625" type="line"/>
			<point x="1613.5586547852" y="101.0009765625" type="line"/>
			<point x="1601.7185668945" y="0" type="line"/>
			<point x="1028.8031616211" y="0" type="line"/>
			<point x="1050.6432495117" y="101.0009765625" type="line"/>
			<point x="1236.6454467773" y="121.0009765625" type="line"/>
			<point x="1393.8053588867" y="784.9822998047" type="line"/>
			<point x="1580" y="1244" type="line"/>
			<point x="1606" y="1363" type="line"/>
			<point x="1597" y="1365" type="line"/>
			<point x="1539" y="1258" type="line"/>
			<point x="1267.6580200195" y="868.8221435547" type="line"/>
			<point x="849.1354370117" y="-6" type="line"/>
			<point x="712.792175293" y="-6" type="line"/>
			<point x="645.0694580078" y="797.0908813477" type="line"/>
			<point x="499" y="1249" type="line"/>
			<point x="485" y="1357" type="line"/>
			<point x="474" y="1355" type="line"/>
			<point x="456" y="1235" type="line"/>
			<point x="437.9595336914" y="747" type="line"/>
			<point x="302.0848999023" y="126.0009765625" type="line"/>
			<point x="545.087097168" y="101.0009765625" type="line"/>
			<point x="532.6469116211" y="0" type="line"/>
		</contour>
	</outline>
	<anchor name="bottom" x="768" y="0"/>
	<anchor name="top" x="1048" y="1500"/>
</glyph>
<glyph name="N" format="2">
	<unicode hex="004E"/>
	<advance width="1616"/>
	<outline>
		<contour>
			<point x="-72.3014526367" y="0" type="line"/>
			<point x="-51.4613647461" y="101.0009765625" type="line"/>
			<point x="155.5408325195" y="118.0009765625" type="line"/>
			<point x="306.7007446289" y="753" type="line"/>
			<point x="446.8206176758" y="1373.3588867188" type="line"/>
			<point x="227.8184204102" y="1384.3588867188" type="line"/>
			<point x="242.6985473633" y="1500" type="line"/>
			<point x="719.3862915039" y="1500" type="line"/>
			<point x="928.5465087891" y="797.4244995117" type="line"/>
			<point x="958" y="418" type="line"/>
			<point x="990" y="317" type="line"/>
			<point x="1001" y="319" type="line"/>
			<point x="1024" y="440" type="line"/>
			<point x="1188.4360351562" y="758" type="line"/>
			<point x="1303.0358886719" y="1366.5988769531" type="line"/>
			<point x="1047.0336914062" y="1383.5988769531" type="line"/>
			<point x="1062.4338378906" y="1500" type="line"/>
			<point x="1665.5859375" y="1500" type="line"/>
			<point x="1651.1857910156" y="1383.5988769531" type="line"/>
			<point x="1442.18359375" y="1366.5988769531" type="line"/>
			<point x="1306.5837402344" y="753" type="line"/>
			<point x="1154.5837402344" y="0" type="line"/>
			<point x="992.7534179688" y="0" type="line"/>
			<point x="780.2592163086" y="751.0681762695" type="line"/>
			<point x="507" y="1220" type="line"/>
			<point x="471" y="1324" type="line"/>
			<point x="461" y="1321" type="line"/>
			<point x="442" y="1199" type="line"/>
			<point x="424.163269043" y="746" type="line"/>
			<point x="289.0033569336" y="118.0009765625" type="line"/>
			<point x="561.0055541992" y="101.0009765625" type="line"/>
			<point x="546.1654663086" y="0" type="line"/>
		</contour>
	</outline>
	<anchor name="bottom" x="640" y="0"/>
	<anchor name="top" x="884" y="1500"/>
	<anchor name="engtail" x="1041" y="0"/>
	<anchor name="liga" x="1432" y="0"/>
</glyph>
<glyph name="Q" format="2">
	<unicode hex="0051"/>
	<advance width="1543"/>
	<outline>
		<contour>
			<point x="88.4486721729" y="822" type="qcurve" smooth="yes"/>
			<point x="182.5371731495" y="1186"/>
			<point x="715.5120849609" y="1566.4684448242"/>
			<point x="1023.0863064502" y="1519.8578491211" type="qcurve" smooth="yes"/>
			<point x="1290.1524658203" y="1480.5459594727"/>
			<point x="1520.2782620167" y="1051"/>
			<point x="1421.4872463917" y="672" type="qcurve" smooth="yes"/>
			<point x="1326.3723754883" y="301"/>
			<point x="809.086977837" y="-68.9100952148"/>
			<point x="505.6018704151" y="-26.286315918" type="qcurve" smooth="yes"/>
			<point x="233.9135159229" y="12.766784668"/>
			<point x="-6.6398288037" y="446"/>
		</contour>
		<contour>
			<point x="265.1118801807" y="777" type="qcurve" smooth="yes"/>
			<point x="185.0263088916" y="491.3345947266"/>
			<point x="322.994934082" y="118.6576538086"/>
			<point x="519.7422485352" y="87.6576538086" type="qcurve" smooth="yes"/>
			<point x="745.2307739258" y="51.6576538086"/>
			<point x="1162.9732693409" y="409.4437866211"/>
			<point x="1248.4169338917" y="715" type="qcurve" smooth="yes"/>
			<point x="1324.0570095752" y="1000.1571044922"/>
			<point x="1174.3477810596" y="1372.0065307617"/>
			<point x="978.3210476612" y="1400.0065307617" type="qcurve" smooth="yes"/>
			<point x="755.3266628956" y="1435.0065307617"/>
			<point x="349.692080376" y="1085.0051269531"/>
		</contour>
		<contour>
			<point x="331.3607788086" y="-70.5068359375" type="qcurve"/>
			<point x="306.8817749023" y="-72.0437011719" type="line"/>
			<point x="773.7365112305" y="-203.7528076172" type="line" smooth="yes"/>
			<point x="925.1454467773" y="-230.90234375"/>
			<point x="1101.1412963867" y="-170.7543945312"/>
			<point x="1178.2894897461" y="-89.3646240234" type="qcurve"/>
			<point x="1258.2142944336" y="-137.0874023438" type="line"/>
			<point x="1191.0197143555" y="-227.6358642578"/>
			<point x="1004.3295288086" y="-356.7172851562"/>
			<point x="873.524230957" y="-381.4163818359" type="qcurve"/>
			<point x="312.4935913086" y="-206.4713134766" type="line"/>
			<point x="257.0045776367" y="-203.2554931641"/>
			<point x="145.9534301758" y="-243.2877197266"/>
			<point x="54.260925293" y="-316.2395019531" type="qcurve"/>
			<point x="5.9411010742" y="-252.7609863281" type="line"/>
			<point x="60.4807739258" y="-199.7434082031"/>
			<point x="228.555480957" y="-95.365234375"/>
		</contour>
		<contour>
			<point x="240.0628051758" y="-51.5900878906" type="line"/>
			<point x="376.332824707" y="-8.0557861328"/>
			<point x="551.9440307617" y="108.8702392578"/>
			<point x="626.1106567383" y="184.2961425781" type="qcurve" smooth="yes"/>
			<point x="623.6292114258" y="181.4443359375"/>
			<point x="630.2033081055" y="184.3332519531"/>
			<point x="637.6292114258" y="186.3887939453" type="qcurve"/>
			<point x="666.7587280273" y="179.5369873047"/>
			<point x="718.8511352539" y="142.6112060547"/>
			<point x="736.0733032227" y="128.7038574219" type="qcurve"/>
			<point x="734.3881225586" y="119.9631347656"/>
			<point x="725.7584838867" y="113.3334960938"/>
			<point x="725.8695678711" y="114.8149414062" type="qcurve" smooth="yes"/>
			<point x="651.3704223633" y="54.2231445312"/>
			<point x="431.4065551758" y="-62.1481933594"/>
			<point x="336.1365356445" y="-79.8306884766" type="qcurve"/>
		</contour>
	</outline>
	<anchor name="bottom" x="832" y="0"/>
	<anchor name="top" x="832" y="1500"/>
</glyph>
<glyph name="R" format="2">
	<unicode hex="0052"/>
	<advance width="1296"/>
	<outline>
		<contour>
			<point x="-72.3014526367" y="0" type="line"/>
			<point x="-52.8612670898" y="101.0009765625" type="line"/>
			<point x="124.1409301758" y="110.0009765625" type="line"/>
			<point x="274.7007446289" y="784" type="line"/>
			<point x="387.9805297852" y="1373.3588867188" type="line"/>
			<point x="206.8184204102" y="1384.3588867188" type="line"/>
			<point x="222.6985473633" y="1500" type="line"/>
			<point x="737.8524780273" y="1500" type="line" smooth="yes"/>
			<point x="947.5762329102" y="1500"/>
			<point x="1114.9353637695" y="1311"/>
			<point x="1097.2460327148" y="1154" type="qcurve" smooth="yes"/>
			<point x="1075.0394897461" y="977"/>
			<point x="809.8466186523" y="711.7409667969"/>
			<point x="631.1445922852" y="711.7409667969" type="qcurve" smooth="yes"/>
			<point x="565.5576782227" y="711.7409667969"/>
			<point x="400.1415405273" y="717.7409667969"/>
			<point x="358.7955932617" y="721.7409667969" type="qcurve"/>
			<point x="378.1288452148" y="822.7775878906" type="line"/>
			<point x="492.0932006836" y="819.7775878906" type="line"/>
			<point x="578.7885131836" y="819.7775878906" type="line" smooth="yes"/>
			<point x="721.8590698242" y="819.7775878906"/>
			<point x="905.8973999023" y="995"/>
			<point x="931.4146118164" y="1174" type="qcurve" smooth="yes"/>
			<point x="953.9318237305" y="1327"/>
			<point x="832.221862793" y="1393.9449462891"/>
			<point x="728.711730957" y="1393.9449462891" type="qcurve" smooth="yes"/>
			<point x="599.2229614258" y="1393.9449462891" type="line"/>
			<point x="562.5377807617" y="1371.9449462891" type="line"/>
			<point x="431.6117553711" y="751" type="line"/>
			<point x="299.051940918" y="112.0009765625" type="line"/>
			<point x="477.0541381836" y="101.0009765625" type="line"/>
			<point x="467.6139526367" y="0" type="line"/>
		</contour>
		<contour>
			<point x="616" y="792" type="line"/>
			<point x="790.5534057617" y="806.6893310547" type="line"/>
			<point x="826.1187133789" y="692.0089111328" type="line" smooth="yes"/>
			<point x="962.3632202148" y="332.9488525391"/>
			<point x="1148.7454223633" y="82.0732421875"/>
			<point x="1330.8954467773" y="80.2409667969" type="qcurve"/>
			<point x="1300.7647094727" y="-11" type="line"/>
			<point x="1269.0895385742" y="-12" type="line" smooth="yes"/>
			<point x="1028.2649536133" y="-21"/>
			<point x="656" y="447"/>
			<point x="676.7012329102" y="642.4426269531" type="qcurve" smooth="yes"/>
		</contour>
	</outline>
	<anchor name="bottom" x="573" y="0"/>
	<anchor name="top" x="670" y="1500"/>
</glyph>
<glyph name="S" format="2">
	<unicode hex="0053"/>
	<advance width="1090"/>
	<outline>
		<contour>
			<point x="-70.2960205078" y="12.4847412109" type="line"/>
			<point x="19.9411621094" y="417.1906738281" type="line"/>
			<point x="106.0231933594" y="417.1906738281" type="line"/>
			<point x="141.1424560547" y="350.1477050781" type="line" smooth="yes"/>
			<point x="168.6312866211" y="217.1477050781"/>
			<point x="295.5269775391" y="96.2216796875"/>
			<point x="419.4630126953" y="96.2216796875" type="qcurve" smooth="yes"/>
			<point x="519.2487792969" y="96.2216796875"/>
			<point x="706.9521484375" y="169.1336669922"/>
			<point x="738.9521484375" y="286.9000244141" type="qcurve" smooth="yes"/>
			<point x="775.9521484375" y="443.7545166016"/>
			<point x="611.2349853516" y="642.1528320312"/>
			<point x="468.5948486328" y="742.5090332031" type="qcurve" smooth="yes"/>
			<point x="364.1043701172" y="810.6629638672"/>
			<point x="135.5427246094" y="1019.3703613281"/>
			<point x="175.5427246094" y="1219.2479248047" type="qcurve" smooth="yes"/>
			<point x="212.5427246094" y="1377.7257080078"/>
			<point x="471.951171875" y="1520"/>
			<point x="628.2199707031" y="1520" type="qcurve" smooth="yes"/>
			<point x="734.8931884766" y="1520"/>
			<point x="886.3126220703" y="1474.2307128906"/>
			<point x="927.4448242188" y="1445.8642578125" type="qcurve"/>
			<point x="990.6837158203" y="1494.3956298828" type="line"/>
			<point x="1061.4854736328" y="1485.0352783203" type="line"/>
			<point x="983.2482910156" y="1112.9174194336" type="line"/>
			<point x="898.4460449219" y="1112.9174194336" type="line"/>
			<point x="854.0415039062" y="1197.9814453125" type="line"/>
			<point x="856.2822265625" y="1283.1811523438"/>
			<point x="727.576171875" y="1410.2042236328"/>
			<point x="647.4854736328" y="1410.2042236328" type="qcurve" smooth="yes"/>
			<point x="571.4034423828" y="1410.2042236328"/>
			<point x="405.5573730469" y="1354.5729980469"/>
			<point x="379.5573730469" y="1234.2543945312" type="qcurve" smooth="yes"/>
			<point x="350.5573730469" y="1095.2291259766"/>
			<point x="519.1553955078" y="926.1881103516"/>
			<point x="694.0469970703" y="811.8381347656" type="qcurve" smooth="yes"/>
			<point x="800.3093261719" y="718.8586425781"/>
			<point x="988.9029541016" y="485.9821777344"/>
			<point x="947.8852539062" y="319.3538818359" type="qcurve" smooth="yes"/>
			<point x="907.8675537109" y="154.7786865234"/>
			<point x="608.1868896484" y="-16"/>
			<point x="445.0577392578" y="-16" type="qcurve" smooth="yes"/>
			<point x="318.0238037109" y="-16"/>
			<point x="158.2169189453" y="53.4959716797"/>
			<point x="117.7045898438" y="106.119140625" type="qcurve"/>
			<point x="5.397644043" y="-5.8756103516" type="line"/>
		</contour>
	</outline>
	<anchor name="bottom" x="399" y="0"/>
	<anchor name="top" x="679" y="1500"/>
</glyph>
<glyph name="V" format="2">
	<unicode hex="0056"/>
	<advance width="1214"/>
	<outline>
		<contour>
			<point x="25.4399414062" y="1386.3588867188" type="line"/>
			<point x="46.4001464844" y="1500" type="line"/>
			<point x="605.1617431641" y="1500" type="line"/>
			<point x="584.2015380859" y="1386.3588867188" type="line"/>
			<point x="387.2366943359" y="1371.3588867188" type="line"/>
			<point x="440.9476928711" y="832.9110717773" type="line"/>
			<point x="479.00390625" y="411.9927368164" type="line"/>
			<point x="486.1606445312" y="254.0574951172" type="line"/>
			<point x="500.48046875" y="253.0574951172" type="line"/>
			<point x="587.7229614258" y="420.2985839844" type="line"/>
			<point x="807.9259033203" y="861.8720703125" type="line"/>
			<point x="1079.8714599609" y="1360.3588867188" type="line"/>
			<point x="837.7071533203" y="1386.3588867188" type="line"/>
			<point x="852.5872802734" y="1500" type="line"/>
			<point x="1491.2401123047" y="1500" type="line"/>
			<point x="1477.0451660156" y="1386.3588867188" type="line"/>
			<point x="1226.0002441406" y="1364.3588867188" type="line"/>
			<point x="920.8696899414" y="807.3263549805" type="line"/>
			<point x="478.0762329102" y="-7.1430664062" type="line"/>
			<point x="348.4457397461" y="-7.1430664062" type="line"/>
			<point x="277.9830322266" y="764.4708862305" type="line"/>
			<point x="214.4849853516" y="1368.3588867188" type="line"/>
		</contour>
	</outline>
	<anchor name="bottom" x="373" y="0"/>
	<anchor name="top" x="743" y="1500"/>
</glyph>
<glyph name="W" format="2">
	<unicode hex="0057"/>
	<advance width="1640"/>
	<outline>
		<contour>
			<point x="12.9627685547" y="1386.3588867188" type="line"/>
			<point x="33.2030029297" y="1500" type="line"/>
			<point x="581.3820800781" y="1500" type="line"/>
			<point x="561.1418457031" y="1386.3588867188" type="line"/>
			<point x="346.1396484375" y="1368.3588867188" type="line"/>
			<point x="392.845703125" y="827.6962890625" type="line"/>
			<point x="410" y="400" type="line"/>
			<point x="410" y="271" type="line"/>
			<point x="427" y="271" type="line"/>
			<point x="497" y="400" type="line"/>
			<point x="595.7292480469" y="669.7507324219" type="line"/>
			<point x="913" y="1121" type="line"/>
			<point x="774.7282104492" y="1368.4389648438" type="line"/>
			<point x="591.7260131836" y="1390.4389648438" type="line"/>
			<point x="610.6862182617" y="1500" type="line"/>
			<point x="1174.6123657227" y="1500" type="line"/>
			<point x="1155.6521606445" y="1392.3588867188" type="line"/>
			<point x="926.6499633789" y="1362.3588867188" type="line"/>
			<point x="959.1048583984" y="754.8078613281" type="line"/>
			<point x="1094" y="400" type="line"/>
			<point x="1094" y="271" type="line"/>
			<point x="1111" y="271" type="line"/>
			<point x="1177" y="400" type="line"/>
			<point x="1280.8104248047" y="860.6379394531" type="line"/>
			<point x="1487.4244995117" y="1359.3588867188" type="line"/>
			<point x="1265.4223022461" y="1386.3588867188" type="line"/>
			<point x="1280.3024291992" y="1500" type="line"/>
			<point x="1933.8490600586" y="1500" type="line"/>
			<point x="1972" y="1385" type="line"/>
			<point x="1646.9667358398" y="1363.5988769531" type="line"/>
			<point x="1401.2409667969" y="814.8594360352" type="line"/>
			<point x="1003.2534179688" y="-7.1430664062" type="line"/>
			<point x="847.9993286133" y="-7.1430664062" type="line"/>
			<point x="923" y="805" type="line"/>
			<point x="921" y="934" type="line"/>
			<point x="911" y="934" type="line"/>
			<point x="844" y="805" type="line"/>
			<point x="473.6135864258" y="-7.1430664062" type="line"/>
			<point x="297.4452514648" y="-7.1430664062" type="line"/>
			<point x="243.3328857422" y="815.6962890625" type="line"/>
			<point x="182.9649658203" y="1369.3588867188" type="line"/>
		</contour>
	</outline>
	<anchor name="bottom" x="691" y="0"/>
	<anchor name="top" x="981" y="1500"/>
</glyph>
<glyph name="X" format="2">
	<unicode hex="0058"/>
	<advance width="1309"/>
	<outline>
		<contour>
			<point x="-149.4476318359" y="0" type="line"/>
			<point x="-133.6075439453" y="101.0009765625" type="line"/>
			<point x="79.3946533203" y="118.0009765625" type="line"/>
			<point x="596.594909668" y="793.1119995117" type="line"/>
			<point x="372.2783203125" y="1370.3588867188" type="line"/>
			<point x="198.2761230469" y="1383.3588867188" type="line"/>
			<point x="214.15625" y="1500" type="line"/>
			<point x="766.9477539062" y="1500" type="line"/>
			<point x="751.0676269531" y="1382.3588867188" type="line"/>
			<point x="544.0654296875" y="1372.3588867188" type="line"/>
			<point x="654.4833374023" y="1078.1014404297" type="line"/>
			<point x="716.3480834961" y="925.7348022461" type="line"/>
			<point x="717.3480834961" y="925.7348022461" type="line"/>
			<point x="847.8236694336" y="1087.3279418945" type="line"/>
			<point x="1033.2391967773" y="1362.3588867188" type="line"/>
			<point x="807.2369995117" y="1383.3588867188" type="line"/>
			<point x="823.1171264648" y="1500" type="line"/>
			<point x="1433.391784668" y="1500" type="line"/>
			<point x="1416.5116577148" y="1383.3588867188" type="line"/>
			<point x="1194.5094604492" y="1365.3588867188" type="line"/>
			<point x="749.3491210938" y="811.7526245117" type="line"/>
			<point x="1002.1497802734" y="111.0009765625" type="line"/>
			<point x="1183.1519775391" y="101.0009765625" type="line"/>
			<point x="1167.3118896484" y="0" type="line"/>
			<point x="585.8566894531" y="0" type="line"/>
			<point x="600.6967773438" y="101.0009765625" type="line"/>
			<point x="825.6989746094" y="111.0009765625" type="line"/>
			<point x="675.1445922852" y="544.962890625" type="line"/>
			<point x="626.7290649414" y="674.69921875" type="line"/>
			<point x="625.7290649414" y="674.69921875" type="line"/>
			<point x="516.7981567383" y="538.2636108398" type="line"/>
			<point x="228.2477416992" y="121.0009765625" type="line"/>
			<point x="475.2499389648" y="101.0009765625" type="line"/>
			<point x="459.4098510742" y="0" type="line"/>
		</contour>
	</outline>
	<anchor name="bottom" x="453" y="0"/>
	<anchor name="top" x="723" y="1500"/>
	<anchor name="cy_descender" x="1125" y="100"/>
	<anchor name="center" x="591" y="791"/>
</glyph>
<glyph name="c" format="2">
	<unicode hex="0063"/>
	<advance width="965"/>
	<outline>
		<contour>
			<point x="14.9226074219" y="510.4061279297" type="qcurve" smooth="yes"/>
			<point x="56.6794433594" y="741.4334716797"/>
			<point x="414.5478515625" y="1022.8122558594"/>
			<point x="636.8070068359" y="1022.8122558594" type="qcurve" smooth="yes"/>
			<point x="758.3757324219" y="1022.8122558594"/>
			<point x="889.9055175781" y="920.8122558594"/>
			<point x="897.9055175781" y="851.8122558594" type="qcurve" smooth="yes"/>
			<point x="903.9055175781" y="807.8122558594"/>
			<point x="844.1125488281" y="707.8122558594"/>
			<point x="763.6525878906" y="684.8122558594" type="qcurve"/>
			<point x="731.6018066406" y="697.8122558594" type="line"/>
			<point x="726.6018066406" y="934.8122558594" type="line" smooth="yes"/>
			<point x="725.6018066406" y="954.8122558594"/>
			<point x="641.0802001953" y="890.7644042969"/>
			<point x="596.1689453125" y="890.7644042969" type="qcurve" smooth="yes"/>
			<point x="440.1342773438" y="890.7644042969"/>
			<point x="234.0603027344" y="722.6226806641"/>
			<point x="199.3034667969" y="508.4061279297" type="qcurve" smooth="yes"/>
			<point x="162.7358398438" y="284.5679931641"/>
			<point x="282.2622070312" y="158.1176757812"/>
			<point x="408.3326416016" y="158.1176757812" type="qcurve" smooth="yes"/>
			<point x="560.482421875" y="158.1176757812"/>
			<point x="746.3587646484" y="275.4428710938"/>
			<point x="797.3116455078" y="329.55859375" type="qcurve"/>
			<point x="863.7768554688" y="262.5346679688" type="line"/>
			<point x="866.7768554688" y="219.9296875" type="line"/>
			<point x="794.7611083984" y="141.5739746094"/>
			<point x="504.2032470703" y="-9"/>
			<point x="330.6950683594" y="-9" type="qcurve" smooth="yes"/>
			<point x="156.4191894531" y="-9"/>
			<point x="-25.2396240234" y="286.1625976562"/>
		</contour>
	</outline>
	<anchor name="bottom" x="343" y="0"/>
	<anchor name="top" x="600" y="1000"/>
</glyph>
<glyph name="d" format="2">
	<unicode hex="0064"/>
	<advance width="1131"/>
	<outline>
		<contour>
			<point x="-15.8817964057" y="253.9460449219" type="qcurve" smooth="yes"/>
			<point x="-31.3361388362" y="595.4870605469"/>
			<point x="424.5486267888" y="995.5040283203"/>
			<point x="690.8614929998" y="995.7039794922" type="qcurve" smooth="yes"/>
			<point x="757.408856281" y="995.7039794922" type="line"/>
			<point x="830.504925617" y="1394.3020019531" type="line"/>
			<point x="682.8081482732" y="1382.84765625" type="line"/>
			<point x="701.1724060857" y="1471.212890625" type="line"/>
			<point x="994.4895447576" y="1567.212890625" type="line"/>
			<point x="1026.4875916326" y="1542.7529296875" type="line"/>
			<point x="827.2322205388" y="469" type="line"/>
			<point x="771.6870545232" y="153.7292480469" type="line"/>
			<point x="956.4741638982" y="163.7292480469" type="line"/>
			<point x="958.4741638982" y="74" type="line"/>
			<point x="660.2605408513" y="-6" type="line"/>
			<point x="606.8767517888" y="21.79296875" type="line"/>
			<point x="612.4646424138" y="194.9067382812" type="line"/>
			<point x="570.5281189763" y="109.4184570312"/>
			<point x="307.0441101873" y="-5"/>
			<point x="212.5441101873" y="-5" type="qcurve" smooth="yes"/>
			<point x="90.0063904607" y="-5"/>
			<point x="-10.3929048041" y="134.5676269531"/>
		</contour>
		<contour>
			<point x="159.8066801568" y="305.9460449219" type="qcurve" smooth="yes"/>
			<point x="162.3079041326" y="203.0600585938"/>
			<point x="218.9210633123" y="125.0942382812"/>
			<point x="284.1250428045" y="125.0942382812" type="qcurve" smooth="yes"/>
			<point x="424.1222351873" y="125.0942382812"/>
			<point x="633.0992859685" y="305"/>
			<point x="659.6716736638" y="463" type="qcurve" smooth="yes"/>
			<point x="725.5597351873" y="800.0047607422" type="line"/>
			<point x="717.5597351873" y="818.0047607422"/>
			<point x="657.3657654607" y="851.0047607422"/>
			<point x="590.3762635076" y="851.0047607422" type="qcurve" smooth="yes"/>
			<point x="390.8783387029" y="851.0047607422"/>
			<point x="153.8288969537" y="559.4870605469"/>
		</contour>
	</outline>
	<anchor name="bottom" x="604" y="0"/>
	<anchor name="center" x="876" y="1202"/>
	<anchor name="top" x="704" y="1534"/>
	<anchor name="topright" x="1076" y="1000"/>
	<anchor name="liga" x="1067" y="0"/>
</glyph>
<glyph name="e" format="2">
	<unicode hex="0065"/>
	<advance width="981"/>
	<outline>
		<contour>
			<point x="1.0581639956" y="448.1651611328" type="qcurve" smooth="yes"/>
			<point x="18.7763036441" y="669.1010742188"/>
			<point x="331.3571141909" y="1024.5960693359"/>
			<point x="554.151669855" y="1024.5960693359" type="qcurve" smooth="yes"/>
			<point x="668.0172704409" y="1024.5960693359"/>
			<point x="818.9132665347" y="923.3614501953"/>
			<point x="855.4069188784" y="832.7827148438" type="qcurve" smooth="yes"/>
			<point x="865.0564550112" y="810.6439208984"/>
			<point x="881.2341893862" y="764.4602050781"/>
			<point x="877.0319188784" y="736.3944091797" type="qcurve"/>
			<point x="961.7296727847" y="731.5106201172" type="line"/>
			<point x="917.6827977847" y="621.8118896484" type="line"/>
			<point x="836.0278905581" y="617.9144287109"/>
			<point x="602.7730712891" y="616.8118896484"/>
			<point x="498.5272802066" y="617.8118896484" type="qcurve" smooth="yes"/>
			<point x="165.1851806641" y="621.8118896484" type="line"/>
			<point x="190.573544855" y="715.5242919922" type="line"/>
			<point x="680.0762304019" y="725.8826904297" type="line"/>
			<point x="691.1210302066" y="743.2142333984"/>
			<point x="690.6668065737" y="771.0621337891"/>
			<point x="686.7334569644" y="790.6162109375" type="qcurve" smooth="yes"/>
			<point x="679.8223241519" y="832.7283935547"/>
			<point x="619.8623632144" y="902.9202880859"/>
			<point x="532.2977880191" y="902.9202880859" type="qcurve" smooth="yes"/>
			<point x="428.6288427066" y="902.9202880859"/>
			<point x="234.0587743472" y="750.7661132812"/>
			<point x="195.97393548" y="520.6762695312" type="qcurve" smooth="yes"/>
			<point x="179.6519139956" y="390.3265380859"/>
			<point x="257.5179443359" y="178.9385986328"/>
			<point x="410.7492675781" y="167.2900390625" type="qcurve" smooth="yes"/>
			<point x="548.0051269531" y="156.0579833984"/>
			<point x="724.4456787109" y="225.0261230469"/>
			<point x="805.8559570312" y="328.5131835938" type="qcurve"/>
			<point x="855.4620946597" y="273.1162109375" type="line"/>
			<point x="879.5553563784" y="228.8363037109" type="line"/>
			<point x="789.9287109375" y="139.2349853516"/>
			<point x="508.1268310547" y="-18.6390380859"/>
			<point x="348.2554296206" y="-4.6923828125" type="qcurve" smooth="yes"/>
			<point x="140.8787841797" y="10.0491943359"/>
			<point x="-11.6679102231" y="263.4844970703"/>
		</contour>
	</outline>
	<anchor name="bottom" x="339" y="0"/>
	<anchor name="ogonek" x="495" y="0"/>
	<anchor name="top" x="601" y="1000"/>
</glyph>
<glyph name="f" format="2">
	<unicode hex="0066"/>
	<advance width="473"/>
	<outline>
		<contour>
			<point x="-395.5430297852" y="-349.3957519531" type="line" smooth="yes"/>
			<point x="-377.7246704102" y="-258.4846191406" type="line"/>
			<point x="-245.9733886719" y="-251.9389648438" type="line" smooth="yes"/>
			<point x="-76.0241699219" y="-245.9081420898"/>
			<point x="6.4628295898" y="6.1047363281"/>
			<point x="73.3009643555" y="432.7487792969" type="qcurve" smooth="yes"/>
			<point x="152.043762207" y="923.2834472656" type="line"/>
			<point x="161.9033203125" y="955.1442871094" type="line"/>
			<point x="177.501953125" y="1083.8068847656" type="line" smooth="yes"/>
			<point x="216.7143554688" y="1311.6558837891"/>
			<point x="407.1671142578" y="1541.8068847656"/>
			<point x="558.5106811523" y="1540.8068847656" type="qcurve" smooth="yes"/>
			<point x="663.8428344727" y="1539.8068847656"/>
			<point x="781.9257202148" y="1446.8068847656"/>
			<point x="778.9257202148" y="1366.8068847656" type="qcurve" smooth="yes"/>
			<point x="776.9257202148" y="1307.8068847656"/>
			<point x="708.5419311523" y="1252.8068847656"/>
			<point x="635.5419311523" y="1252.8068847656" type="qcurve" smooth="yes"/>
			<point x="639.5419311523" y="1280.8068847656"/>
			<point x="639.5419311523" y="1366.8068847656"/>
			<point x="640.5419311523" y="1398.8068847656" type="qcurve" smooth="yes"/>
			<point x="642.5419311523" y="1356.9685058594"/>
			<point x="614.0376586914" y="1408.5031738281"/>
			<point x="560.5630493164" y="1409.5031738281" type="qcurve" smooth="yes"/>
			<point x="478.3248901367" y="1411.5031738281"/>
			<point x="373.2062988281" y="1265.6993408203"/>
			<point x="340.2286376953" y="1064.6882324219" type="qcurve" smooth="yes"/>
			<point x="327.7724609375" y="952.8884277344" type="line"/>
			<point x="327.28515625" y="930.4230957031" type="line"/>
			<point x="283.5437011719" y="650.6042480469" type="line" smooth="yes"/>
			<point x="199.5389404297" y="93.7817993164"/>
			<point x="-61.7940063477" y="-409.3957519531"/>
			<point x="-237.0625610352" y="-409.3957519531" type="qcurve"/>
		</contour>
		<contour>
			<point x="-5.8812866211" y="860.5388183594" type="line"/>
			<point x="-10.7650756836" y="949.2604980469" type="line"/>
			<point x="154.7723388672" y="977.3537597656" type="line"/>
			<point x="518.3104858398" y="1001.6330566406" type="line"/>
			<point x="504.9848022461" y="875.6550292969" type="line"/>
			<point x="206.4617919922" y="874.4924316406" type="line"/>
			<point x="157.8485107422" y="860.6730957031" type="line"/>
		</contour>
	</outline>
	<anchor name="bottom" x="217" y="0"/>
	<anchor name="top" x="554" y="1536"/>
</glyph>
<glyph name="g" format="2">
	<unicode hex="0067"/>
	<advance width="1182"/>
	<outline>
		<contour>
			<point x="-5.9739990234" y="283.9730224609" type="qcurve" smooth="yes"/>
			<point x="-15.9517822266" y="573.7032470703"/>
			<point x="431.8884277344" y="1015.3255615234"/>
			<point x="646.9948730469" y="1015.3255615234" type="qcurve" smooth="yes"/>
			<point x="728.7727050781" y="1015.3255615234"/>
			<point x="841.3505859375" y="964.3255615234"/>
			<point x="868.6839599609" y="928.3255615234" type="qcurve"/>
			<point x="949.2474365234" y="1015.3255615234" type="line"/>
			<point x="981.7337646484" y="1014.3255615234" type="line"/>
			<point x="1024.7835693359" y="887.2269287109" type="line"/>
			<point x="949.7171630859" y="567" type="line" smooth="yes"/>
			<point x="896.5168457031" y="348.6057128906"/>
			<point x="837.3572998047" y="116.8038330078"/>
			<point x="783.9128417969" y="3.8038330078" type="qcurve" smooth="yes"/>
			<point x="704.0461425781" y="-177.8627929688"/>
			<point x="370.1245117188" y="-416.1961669922"/>
			<point x="227.0130615234" y="-416.1961669922" type="qcurve"/>
			<point x="43.4127197266" y="-356.1961669922" type="line"/>
			<point x="54.8673095703" y="-271.2855224609" type="line"/>
			<point x="227.1832275391" y="-264.2850341797" type="line" smooth="yes"/>
			<point x="420.0784912109" y="-258.9210205078"/>
			<point x="638.3302001953" y="-64.9442138672"/>
			<point x="731.5534667969" y="305.0780029297" type="qcurve" smooth="yes"/>
			<point x="710.4937744141" y="210.4888916016" type="line"/>
			<point x="689.0925292969" y="151.4888916016"/>
			<point x="437.3155517578" y="-10"/>
			<point x="237.7722167969" y="-10" type="qcurve" smooth="yes"/>
			<point x="112.5675048828" y="-10"/>
			<point x="-1.4851074219" y="159.2727050781"/>
		</contour>
		<contour>
			<point x="173.6119384766" y="292.9730224609" type="qcurve" smooth="yes"/>
			<point x="176.1008300781" y="209.7843017578"/>
			<point x="285.1346435547" y="129.25390625"/>
			<point x="367.3126220703" y="129.25390625" type="qcurve" smooth="yes"/>
			<point x="530.4278564453" y="129.25390625"/>
			<point x="736.6029052734" y="341.4097900391"/>
			<point x="789.5872802734" y="591.677734375" type="qcurve" smooth="yes"/>
			<point x="838.9294433594" y="804.5101318359" type="line"/>
			<point x="817.9516601562" y="823.5101318359"/>
			<point x="703.3841552734" y="878.5101318359"/>
			<point x="641.2227783203" y="878.5101318359" type="qcurve" smooth="yes"/>
			<point x="449.4136962891" y="878.5101318359"/>
			<point x="167.123046875" y="494.34375"/>
		</contour>
	</outline>
	<anchor name="bottom" x="324" y="-416"/>
	<anchor name="top" x="603" y="1000"/>
</glyph>
<glyph name="k" format="2">
	<unicode hex="006B"/>
	<advance width="970"/>
	<outline>
		<contour>
			<point x="550.0213623047" y="460.3416748047" type="line"/>
			<point x="197.5427856445" y="177.7914428711" type="line"/>
			<point x="207.3247070312" y="310.9842529297" type="line"/>
			<point x="634.594543457" y="728.8732299805" type="line"/>
			<point x="664.6711425781" y="761.4376220703"/>
			<point x="592.0947875977" y="879.7283935547"/>
			<point x="492.7907104492" y="879.7283935547" type="qcurve" smooth="yes"/>
			<point x="451.7466430664" y="879.7283935547"/>
			<point x="300.6229858398" y="740.883972168"/>
			<point x="325.7114257812" y="696.1468505859" type="qcurve"/>
			<point x="318.4716796875" y="671.4725341797" type="line"/>
			<point x="216.046875" y="124.9736328125" type="line"/>
			<point x="265.9189453125" y="20.666015625" type="line"/>
			<point x="60" y="-7" type="line"/>
			<point x="42" y="81" type="line"/>
			<point x="159" y="585" type="line"/>
			<point x="300.5764160156" y="1398.8474121094" type="line"/>
			<point x="117.8796386719" y="1390.84765625" type="line"/>
			<point x="138.2438964844" y="1474.212890625" type="line"/>
			<point x="459.4584960938" y="1569.5458984375" type="line"/>
			<point x="490.8666992188" y="1538.7783203125" type="line"/>
			<point x="365.8072509766" y="893.6055908203" type="line"/>
			<point x="386.9462280273" y="940.8240966797"/>
			<point x="532.1465454102" y="1033.2176513672"/>
			<point x="620.1465454102" y="1033.2176513672" type="qcurve" smooth="yes"/>
			<point x="707.3516845703" y="1033.2176513672"/>
			<point x="822.7288208008" y="877.6294555664"/>
			<point x="838.7844848633" y="809.1180419922" type="qcurve" smooth="yes"/>
			<point x="842.444152832" y="716.9215698242" type="line"/>
			<point x="840.8352661133" y="719.1774291992" type="line"/>
			<point x="575.2352905273" y="476.2133178711" type="line"/>
		</contour>
		<contour>
			<point x="666.3353271484" y="603.1967163086" type="line"/>
			<point x="716.9260253906" y="160.103515625" type="line"/>
			<point x="838.6467895508" y="175.103515625" type="line"/>
			<point x="838.6467895508" y="91.1015625" type="line"/>
			<point x="616.9520263672" y="-10.2271728516" type="line" smooth="yes"/>
			<point x="615.235534668" y="-15.3752441406"/>
			<point x="644.6913452148" y="-13.6270141602"/>
			<point x="649.8176269531" y="22" type="qcurve" smooth="yes"/>
			<point x="542.7159423828" y="528.5190429688" type="line"/>
		</contour>
	</outline>
	<anchor name="bottom" x="448" y="0"/>
	<anchor name="top" x="578" y="1534"/>
</glyph>
<glyph name="l" format="2">
	<unicode hex="006C"/>
	<advance width="614"/>
	<outline>
		<contour>
			<point x="93.9345703125" y="-22" type="line"/>
			<point x="45.73046875" y="20.7412109375" type="line"/>
			<point x="169.0126953125" y="604" type="line"/>
			<point x="304.0764160156" y="1399.5747070312" type="line"/>
			<point x="136.3796386719" y="1390.84765625" type="line"/>
			<point x="157.7438964844" y="1474.212890625" type="line"/>
			<point x="466.0610351562" y="1571.9560546875" type="line"/>
			<point x="495.4692382812" y="1540.291015625" type="line"/>
			<point x="311.8037109375" y="588" type="line"/>
			<point x="226.4404296875" y="138.001953125" type="line"/>
			<point x="351.0456542969" y="165.001953125" type="line"/>
			<point x="351.0456542969" y="79" type="line"/>
		</contour>
	</outline>
	<anchor name="bottom" x="201" y="0"/>
	<anchor name="center" x="236" y="770"/>
	<anchor name="top" x="436" y="1534"/>
	<anchor name="topright" x="492" y="1000"/>
	<anchor name="centerright" x="707" y="742"/>
	<anchor name="liga" x="567" y="0"/>
</glyph>
<glyph name="n" format="2">
	<unicode hex="006E"/>
	<advance width="1173"/>
	<outline>
		<contour>
			<point x="47.8516845703" y="-6" type="line"/>
			<point x="33.8516845703" y="64.2966308594" type="line"/>
			<point x="134" y="490" type="line"/>
			<point x="192.4249267578" y="844.6430664062" type="line"/>
			<point x="64.5469970703" y="851.6430664062" type="line"/>
			<point x="66.0015869141" y="942.1906738281" type="line"/>
			<point x="321.0120849609" y="1007.3389892578" type="line"/>
			<point x="359.5238037109" y="993.3389892578" type="line"/>
			<point x="335.2396240234" y="743.1906738281" type="line"/>
			<point x="327.2396240234" y="721.1906738281" type="line"/>
			<point x="213.8477783203" y="108.0191040039" type="line"/>
			<point x="236.4410400391" y="17.5741577148" type="line"/>
		</contour>
		<contour>
			<point x="727.8588256836" y="-13.6631469727" type="line"/>
			<point x="672.2655639648" y="79" type="line"/>
			<point x="802.7636108398" y="675.7483520508" type="line" smooth="yes"/>
			<point x="820.3428955078" y="758.8771362305"/>
			<point x="768.1488037109" y="850.565246582"/>
			<point x="725.7010498047" y="850.565246582" type="qcurve" smooth="yes"/>
			<point x="620.3696289062" y="850.565246582"/>
			<point x="376.1935424805" y="765.6849975586"/>
			<point x="292.2609863281" y="640.6351318359" type="qcurve"/>
			<point x="300.3167724609" y="749.2293701172" type="line"/>
			<point x="371.1162719727" y="850.0873413086"/>
			<point x="704.1148681641" y="1024.1912231445"/>
			<point x="824.7657470703" y="1024.1912231445" type="qcurve" smooth="yes"/>
			<point x="890.100769043" y="1024.1912231445"/>
			<point x="1003.2882080078" y="860.1963500977"/>
			<point x="982.0487670898" y="763.9559326172" type="qcurve" smooth="yes"/>
			<point x="846.9536743164" y="129.001953125" type="line"/>
			<point x="997.8316040039" y="179.001953125" type="line"/>
			<point x="997.8316040039" y="91" type="line"/>
		</contour>
	</outline>
	<anchor name="bottom" x="522" y="0"/>
	<anchor name="top" x="602" y="1000"/>
	<anchor name="liga" x="1173" y="0"/>
</glyph>
<glyph name="o" format="2">
	<unicode hex="006F"/>
	<advance width="1083"/>
	<outline>
		<contour>
			<point x="18.085675811" y="568.0007324219" type="qcurve" smooth="yes"/>
			<point x="71.3448532791" y="801.7855224609"/>
			<point x="397.4624680252" y="1044.430480957"/>
			<point x="602.6488693924" y="1029.430480957" type="qcurve" smooth="yes"/>
			<point x="820.8250168533" y="1012.9146118164"/>
			<point x="991.9777878494" y="689.8388671875"/>
			<point x="961.2075019829" y="497.0007324219" type="qcurve" smooth="yes"/>
			<point x="913.5063523025" y="233.9289550781"/>
			<point x="579.425297615" y="-33.4290161133"/>
			<point x="375.987797615" y="-12.4290161133" type="qcurve" smooth="yes"/>
			<point x="169.8957565994" y="7.9843139648"/>
			<point x="-36.6154738693" y="333.7524414062"/>
		</contour>
		<contour>
			<point x="211.3893867485" y="574.0007324219" type="qcurve" smooth="yes"/>
			<point x="161.756228763" y="373.8550723456"/>
			<point x="249.2773262017" y="115.1674194336"/>
			<point x="393.4847236626" y="95.8278198242" type="qcurve" smooth="yes"/>
			<point x="541.0512519829" y="78.8278198242"/>
			<point x="740.4343990911" y="326.4880203141"/>
			<point x="773.3910957329" y="519.4896240234" type="qcurve" smooth="yes"/>
			<point x="802.4999583398" y="689.6284925936"/>
			<point x="720.9050727837" y="902.1502075195"/>
			<point x="576.1335884087" y="914.1502075195" type="qcurve" smooth="yes"/>
			<point x="434.6952339165" y="926.1502075195"/>
			<point x="252.8769459137" y="751.0175922812"/>
		</contour>
	</outline>
	<anchor name="bottom" x="358" y="0"/>
	<anchor name="center" x="461" y="500"/>
	<anchor name="ogonek" x="514" y="0"/>
	<anchor name="top" x="584" y="1000"/>
	<anchor name="topright" x="663" y="1000"/>
	<anchor name="GRKtop" x="584" y="1000"/>
	<anchor name="yu_dash" x="83" y="498"/>
</glyph>
<glyph name="q" format="2">
	<unicode hex="0071"/>
	<advance width="1180"/>
	<outline>
		<contour>
			<point x="-9.3863525391" y="283.9460449219" type="qcurve" smooth="yes"/>
			<point x="-18.8530273438" y="593.2708740234"/>
			<point x="430.2286376953" y="1017.2985839844"/>
			<point x="638.818359375" y="1017.2985839844" type="qcurve" smooth="yes"/>
			<point x="736.1739501953" y="1017.2985839844"/>
			<point x="837.8851318359" y="978.2985839844"/>
			<point x="872.2629394531" y="942.2985839844" type="qcurve"/>
			<point x="929.6007080078" y="1003.2985839844" type="line"/>
			<point x="963.3692626953" y="1003.2985839844" type="line"/>
			<point x="1002.8292236328" y="860.0456542969" type="line"/>
			<point x="904.9647216797" y="407" type="line"/>
			<point x="743.2569580078" y="-295.1217041016" type="line"/>
			<point x="853.7718505859" y="-316.0308837891" type="line"/>
			<point x="828.4075927734" y="-396.3961181641" type="line"/>
			<point x="582.6285400391" y="-400.6519775391" type="line"/>
			<point x="557.5178222656" y="-369.9869384766" type="line"/>
			<point x="690.7117919922" y="210" type="line"/>
			<point x="682.7117919922" y="210" type="line"/>
			<point x="583.9925537109" y="101.4888916016"/>
			<point x="345.8458251953" y="10"/>
			<point x="238.2075195312" y="10" type="qcurve" smooth="yes"/>
			<point x="118.5567626953" y="10"/>
			<point x="-4.8974609375" y="149.2504882812"/>
		</contour>
		<contour>
			<point x="162.7122802734" y="275.9460449219" type="qcurve" smooth="yes"/>
			<point x="165.201171875" y="207.1690673828"/>
			<point x="231.8122558594" y="143.7221679688"/>
			<point x="277.5129394531" y="143.7221679688" type="qcurve" smooth="yes"/>
			<point x="452.4909667969" y="143.7221679688"/>
			<point x="736.7574462891" y="326.6369628906"/>
			<point x="761.8914794922" y="478" type="qcurve" smooth="yes"/>
			<point x="832.4106445312" y="816.7390136719" type="line"/>
			<point x="820.9217529297" y="834.7390136719"/>
			<point x="768.5489501953" y="880.7390136719"/>
			<point x="663.4376220703" y="880.7390136719" type="qcurve" smooth="yes"/>
			<point x="443.5668945312" y="880.7390136719"/>
			<point x="156.7344970703" y="497.1307373047"/>
		</contour>
	</outline>
	<anchor name="bottom" x="594" y="0"/>
	<anchor name="top" x="594" y="1000"/>
</glyph>
<glyph name="r" format="2">
	<unicode hex="0072"/>
	<advance width="812"/>
	<outline>
		<contour>
			<point x="74.5729370117" y="-11.8139648438" type="line"/>
			<point x="30.2594604492" y="70.8618164062" type="line"/>
			<point x="142.0133666992" y="527.251953125" type="line"/>
			<point x="181.0899047852" y="835.4188842773" type="line"/>
			<point x="37.7362670898" y="821.486328125" type="line"/>
			<point x="38.1908569336" y="916.485168457" type="line"/>
			<point x="252.5297241211" y="1009.7339477539" type="line"/>
			<point x="309.3558959961" y="1009.2446899414" type="line"/>
			<point x="327.6102905273" y="898.5488891602" type="line"/>
			<point x="351.3704223633" y="841.2798461914" type="line"/>
			<point x="213.8653564453" y="129.6431274414" type="line"/>
			<point x="387.3627319336" y="145.4102172852" type="line"/>
			<point x="386.0614624023" y="54.2940063477" type="line"/>
		</contour>
		<contour>
			<point x="660.7689208984" y="656.0043334961" type="line"/>
			<point x="641.4456787109" y="877.2183227539" type="line"/>
			<point x="552.3599818994" y="885.2110430263"/>
			<point x="337.7117550872" y="761.8862031349"/>
			<point x="199.5344238281" y="548.9574584961" type="qcurve"/>
			<point x="231.4947509766" y="668.6853637695" type="line"/>
			<point x="313.5450645431" y="854.307610899"/>
			<point x="587.0972746522" y="1022.3150024414"/>
			<point x="698.7487792969" y="1022.3150024414" type="qcurve" smooth="yes"/>
			<point x="754.4575849568" y="1022.3150024414"/>
			<point x="816.5247192383" y="971.7499007952"/>
			<point x="816.5247192383" y="912.2806396484" type="qcurve" smooth="yes"/>
			<point x="816.5247192383" y="843.6983646495"/>
			<point x="727.7122717666" y="644.0961193096"/>
			<point x="681.120300293" y="652.6694946289" type="qcurve" smooth="yes"/>
		</contour>
	</outline>
	<anchor name="bottom" x="282" y="0"/>
	<anchor name="top" x="486" y="1000"/>
</glyph>
<glyph name="t" format="2">
	<unicode hex="0074"/>
	<advance width="571"/>
	<outline>
		<contour>
			<point x="71.3548583984" y="-13" type="line"/>
			<point x="37.0491943359" y="39" type="line"/>
			<point x="120.0491943359" y="503" type="line"/>
			<point x="196.5970458984" y="905.2770996094" type="line"/>
			<point x="30.9876708984" y="899.0974121094" type="line"/>
			<point x="33.7552490234" y="975.1213378906" type="line"/>
			<point x="190.0746459961" y="991.2502441406"/>
			<point x="327.5654907227" y="1215.4536743164"/>
			<point x="344.6239013672" y="1295.1906738281" type="qcurve"/>
			<point x="412.6491699219" y="1304.1906738281" type="line"/>
			<point x="429.1101074219" y="1296.0119628906" type="line"/>
			<point x="277.5072021484" y="486" type="line"/>
			<point x="218.4483642578" y="147.4562988281" type="line"/>
			<point x="424.5921630859" y="183.4562988281" type="line"/>
			<point x="424.5921630859" y="105" type="line"/>
		</contour>
		<contour>
			<point x="278.9196777344" y="915.0510253906" type="line"/>
			<point x="303.9665527344" y="1002.5866699219" type="line"/>
			<point x="606.8525390625" y="1033.0056152344" type="line"/>
			<point x="596.224609375" y="925.0510253906" type="line"/>
		</contour>
	</outline>
	<anchor name="bottom" x="149" y="0"/>
	<anchor name="center" x="262" y="622"/>
	<anchor name="top" x="322" y="1179"/>
	<anchor name="topright" x="600" y="920"/>
</glyph>
<glyph name="v" format="2">
	<unicode hex="0076"/>
	<advance width="896"/>
	<outline>
		<contour>
			<point x="254.1393432617" y="8.8569335938" type="line"/>
			<point x="206.4417114258" y="501.8170776367" type="line"/>
			<point x="161.9848632812" y="867.6831054688" type="line"/>
			<point x="52.6668701172" y="866.5922851562" type="line"/>
			<point x="48.1214599609" y="957.1398925781" type="line"/>
			<point x="279.6115722656" y="1013.1906738281" type="line"/>
			<point x="313.7639160156" y="998.1906738281" type="line"/>
			<point x="341.1549682617" y="567.3163452148" type="line"/>
			<point x="377.7292480469" y="298.5444946289" type="line"/>
			<point x="386.0401000977" y="185.7855224609" type="line"/>
			<point x="394.0853881836" y="185.7855224609" type="line"/>
			<point x="542.5310058594" y="330.7700805664" type="line"/>
			<point x="718.9921264648" y="559.6870727539"/>
			<point x="730.742980957" y="687.0845336914"/>
			<point x="734.742980957" y="767.4530639648" type="qcurve" smooth="yes"/>
			<point x="738.742980957" y="853.3943481445"/>
			<point x="702.1587524414" y="965.1329956055"/>
			<point x="629.1587524414" y="1000.4320678711" type="qcurve" smooth="yes"/>
			<point x="652.1587524414" y="1008.369934082"/>
			<point x="699.1475830078" y="1038.279296875"/>
			<point x="737.5817871094" y="1038.279296875" type="qcurve" smooth="yes"/>
			<point x="813.0754394531" y="1038.279296875"/>
			<point x="910.3528442383" y="955.9920654297"/>
			<point x="904.3528442383" y="863.251159668" type="qcurve" smooth="yes"/>
			<point x="895.3528442383" y="748.5785522461"/>
			<point x="601.4739379883" y="257.0549926758"/>
			<point x="358.237121582" y="-9.1430664062" type="qcurve"/>
		</contour>
	</outline>
	<anchor name="bottom" x="513" y="0"/>
	<anchor name="top" x="513" y="1000"/>
</glyph>
<glyph name="y" format="2">
	<unicode hex="0079"/>
	<advance width="931"/>
	<outline>
		<contour>
			<point x="-280.6478881836" y="-356.1961669922" type="line"/>
			<point x="-275.6478881836" y="-338.1961669922" type="line"/>
			<point x="-166.1690673828" y="-337.1961669922" type="line" smooth="yes"/>
			<point x="-37.9181518555" y="-336.1961669922"/>
			<point x="174.4325561523" y="-241.9806518555"/>
			<point x="246.0953979492" y="-139.9547119141" type="qcurve" smooth="yes"/>
			<point x="374.8294067383" y="-4" type="line"/>
			<point x="293.297668457" y="31" type="line"/>
			<point x="305.6415405273" y="39.2427978516"/>
			<point x="206.1665039062" y="752.6430664062"/>
			<point x="184.0616455078" y="872.6430664062" type="qcurve"/>
			<point x="61.5465087891" y="868.6430664062" type="line"/>
			<point x="59.0010986328" y="966.1906738281" type="line"/>
			<point x="244.0604248047" y="1015.1906738281" type="line"/>
			<point x="296.0076904297" y="1015.1906738281" type="line"/>
			<point x="352.0076904297" y="949.1906738281" type="line"/>
			<point x="440.171875" y="195.0300292969" type="line"/>
			<point x="449.6196899414" y="104.3133544922" type="line"/>
			<point x="450.6196899414" y="104.3133544922" type="line"/>
			<point x="522.4595336914" y="211.836730957" type="line" smooth="yes"/>
			<point x="710.2645263672" y="474.8677978516"/>
			<point x="753.632019043" y="691.7000732422"/>
			<point x="753.632019043" y="801.5115966797" type="qcurve" smooth="yes"/>
			<point x="753.632019043" y="833.5115966797"/>
			<point x="756.8947143555" y="921.5115966797"/>
			<point x="659.8947143555" y="1014.5115966797" type="qcurve" smooth="yes"/>
			<point x="682.8947143555" y="1029.5115966797"/>
			<point x="745.842956543" y="1047.5115966797"/>
			<point x="794.7658081055" y="1047.5115966797" type="qcurve" smooth="yes"/>
			<point x="856.8165893555" y="1047.5115966797"/>
			<point x="937.8790893555" y="991.5115966797"/>
			<point x="935.8790893555" y="916.5115966797" type="qcurve" smooth="yes"/>
			<point x="931.8790893555" y="831.1240844727"/>
			<point x="731.5035400391" y="318.1382446289"/>
			<point x="437.8424682617" y="-59.5325317383" type="qcurve" smooth="yes"/>
			<point x="363.2263183594" y="-146.4189453125" type="line" smooth="yes"/>
			<point x="186.7514038086" y="-377.7654418945"/>
			<point x="-74.1898803711" y="-410.1961669922"/>
			<point x="-202.7808227539" y="-416.1961669922" type="qcurve"/>
		</contour>
	</outline>
	<anchor name="bottom" x="782" y="0"/>
	<anchor name="top" x="504" y="1000"/>
</glyph>
